<?xml version="1.0" encoding="UTF-8"?>
<svg xmlns="http://www.w3.org/2000/svg" version="1.1" viewBox="0 0 2200 2200">
  <!-- Generator: Adobe Illustrator 29.1.0, SVG Export Plug-In . SVG Version: 2.1.0 Build 142)  -->
  <defs>
    <style>
      .st0, .st1 {
        fill: #99477a;
      }

      .st2 {
        fill: #fff;
      }

      .st3 {
        fill: none;
        stroke: #99477a;
        stroke-miterlimit: 10;
        stroke-width: 40px;
      }

      .st1, .st4 {
        display: none;
      }
    </style>
  </defs>
  <g id="background">
    <rect class="st2" x="0" width="2200" height="2200"/>
  </g>
  <g id="Objects">
    <g>
      <path class="st0" d="M1100,447.21c-419,0-758.67,292.27-758.67,652.79,0,185.76,90.17,353.39,234.91,472.26-1.85,56.68-21.63,112.78-56.22,157.77,67.06-2.67,132.75-29.4,183.26-73.5,115.43,61.05,251.3,96.26,396.72,96.26,419,0,758.67-292.27,758.67-652.79s-339.67-652.79-758.67-652.79ZM1571.53,1416.33c-27.96,30.81-67.8,48.13-109.4,48.13h-724.26c-41.6,0-81.44-17.32-109.4-48.13-79.17-87.25-126.35-197.05-126.35-316.33s47.17-229.07,126.34-316.32c27.96-30.82,67.8-48.14,109.41-48.14h724.25c42.12,0,82.18,17.95,110.39,49.21,78.59,87.07,125.37,196.46,125.37,315.24s-47.18,229.08-126.35,316.33Z"/>
      <path class="st0" d="M305.21,1100c0,89.54,19.41,176.37,57.75,258.41-102.43-33.68-176.97-100.35-176.97-258.41,0-149.93,74.54-224.73,176.98-258.41-38.33,82.08-57.76,168.95-57.76,258.41Z"/>
      <path class="st0" d="M274.48,647.8v195.7c-26.58,17.16-49.07,37.85-67.25,61.94-.16.22-.33.42-.48.64v-258.28c0-18.7,15.16-33.86,33.86-33.86s33.87,15.16,33.87,33.86Z"/>
      <path class="st0" d="M1894.79,1100c0,89.54-19.41,176.37-57.75,258.41,102.43-33.68,176.97-100.35,176.97-258.41,0-149.93-74.54-224.73-176.98-258.41,38.33,82.08,57.76,168.95,57.76,258.41Z"/>
      <path class="st0" d="M1925.52,647.8v195.7c26.58,17.16,49.07,37.85,67.25,61.94.16.22.33.42.48.64v-258.28c0-18.7-15.16-33.86-33.86-33.86-18.7,0-33.87,15.16-33.87,33.86Z"/>
      <g class="st4">
        <g>
          <path class="st1" d="M938.78,1079.76c-22.04,33.93-53.84,0-120.28,0s-98.23,33.93-120.27,0c-21.33-32.85,37.52-113.88,120.27-113.88s141.6,81.04,120.28,113.88Z"/>
          <path class="st1" d="M1501.77,1079.76c-22.04,33.93-53.84,0-120.28,0s-98.23,33.93-120.27,0c-21.33-32.85,37.52-113.88,120.27-113.88s141.6,81.04,120.28,113.88Z"/>
        </g>
        <path class="st0" d="M1099.99,1234.13c-46.37,0-76.96-36.77-78.24-38.33-6.93-8.48-5.68-20.98,2.8-27.91,8.48-6.93,20.98-5.68,27.91,2.8.13.15,20.23,23.77,47.53,23.77s47.4-23.62,47.6-23.86c6.93-8.48,19.39-9.69,27.87-2.76,8.48,6.93,9.7,19.47,2.76,27.95-1.28,1.57-31.87,38.33-78.24,38.33Z"/>
      </g>
    </g>
    <circle class="st0" cx="790" cy="1031" r="117"/>
    <circle class="st2" cx="827.5" cy="980.5" r="59.5"/>
    <circle class="st0" cx="1385" cy="1029" r="117"/>
    <circle class="st2" cx="1422.5" cy="978.5" r="59.5"/>
    <circle class="st3" cx="1090" cy="1233" r="117"/>
  </g>
</svg>